<!-- <svg width="200" height="200" viewBox="0 0 200 200" xmlns="http://www.w3.org/2000/svg"><g fill="none" fill-rule="evenodd"><path fill="#FFF" d="M99 52h84v34H99z"/><path d="M23 163c-7.398 0-13.843-4.027-17.303-10A19.886 19.886 0 0 0 3 163c0 11.046 8.954 20 20 20h20v-20H23z" fill="#3ECC5F"/><path d="M112.98 57.376L183 53V43c0-11.046-8.954-20-20-20H73l-2.5-4.33c-1.112-1.925-3.889-1.925-5 0L63 23l-2.5-4.33c-1.111-1.925-3.889-1.925-5 0L53 23l-2.5-4.33c-1.111-1.925-3.889-1.925-5 0L43 23c-.022 0-.042.003-.065.003l-4.142-4.141c-1.57-1.571-4.252-.853-4.828 1.294l-1.369 5.104-5.192-1.392c-2.148-.575-4.111 1.389-3.535 3.536l1.39 5.193-5.102 1.367c-2.148.576-2.867 3.259-1.296 4.83l4.142 4.142c0 .021-.003.042-.003.064l-4.33 2.5c-1.925 1.111-1.925 3.889 0 5L23 53l-4.33 2.5c-1.925 1.111-1.925 3.889 0 5L23 63l-4.33 2.5c-1.925 1.111-1.925 3.889 0 5L23 73l-4.33 2.5c-1.925 1.111-1.925 3.889 0 5L23 83l-4.33 2.5c-1.925 1.111-1.925 3.889 0 5L23 93l-4.33 2.5c-1.925 1.111-1.925 3.889 0 5L23 103l-4.33 2.5c-1.925 1.111-1.925 3.889 0 5L23 113l-4.33 2.5c-1.925 1.111-1.925 3.889 0 5L23 123l-4.33 2.5c-1.925 1.111-1.925 3.889 0 5L23 133l-4.33 2.5c-1.925 1.111-1.925 3.889 0 5L23 143l-4.33 2.5c-1.925 1.111-1.925 3.889 0 5L23 153l-4.33 2.5c-1.925 1.111-1.925 3.889 0 5L23 163c0 11.046 8.954 20 20 20h120c11.046 0 20-8.954 20-20V83l-70.02-4.376A10.645 10.645 0 0 1 103 68c0-5.621 4.37-10.273 9.98-10.624" fill="#3ECC5F"/><path fill="#3ECC5F" d="M143 183h30v-40h-30z"/><path d="M193 158c-.219 0-.428.037-.639.064-.038-.15-.074-.301-.116-.451A5 5 0 0 0 190.32 148a4.96 4.96 0 0 0-3.016 1.036 26.531 26.531 0 0 0-.335-.336 4.955 4.955 0 0 0 1.011-2.987 5 5 0 0 0-9.599-1.959c-.148-.042-.297-.077-.445-.115.027-.211.064-.42.064-.639a5 5 0 0 0-5-5 5 5 0 0 0-5 5c0 .219.037.428.064.639-.148.038-.297.073-.445.115a4.998 4.998 0 0 0-9.599 1.959c0 1.125.384 2.151 1.011 2.987-3.717 3.632-6.031 8.693-6.031 14.3 0 11.046 8.954 20 20 20 9.339 0 17.16-6.41 19.361-15.064.211.027.42.064.639.064a5 5 0 0 0 5-5 5 5 0 0 0-5-5" fill="#44D860"/><path fill="#3ECC5F" d="M153 123h30v-20h-30z"/><path d="M193 115.5a2.5 2.5 0 1 0 0-5c-.109 0-.214.019-.319.032-.02-.075-.037-.15-.058-.225a2.501 2.501 0 0 0-.963-4.807c-.569 0-1.088.197-1.508.518a6.653 6.653 0 0 0-.168-.168c.314-.417.506-.931.506-1.494a2.5 2.5 0 0 0-4.8-.979A9.987 9.987 0 0 0 183 103c-5.522 0-10 4.478-10 10s4.478 10 10 10c.934 0 1.833-.138 2.69-.377a2.5 2.5 0 0 0 4.8-.979c0-.563-.192-1.077-.506-1.494.057-.055.113-.111.168-.168.42.321.939.518 1.508.518a2.5 2.5 0 0 0 .963-4.807c.021-.074.038-.15.058-.225.105.013.21.032.319.032" fill="#44D860"/><path d="M63 55.5a2.5 2.5 0 0 1-2.5-2.5c0-4.136-3.364-7.5-7.5-7.5s-7.5 3.364-7.5 7.5a2.5 2.5 0 1 1-5 0c0-6.893 5.607-12.5 12.5-12.5S65.5 46.107 65.5 53a2.5 2.5 0 0 1-2.5 2.5" fill="#000"/><path d="M103 183h60c11.046 0 20-8.954 20-20V93h-60c-11.046 0-20 8.954-20 20v70z" fill="#FFFF50"/><path d="M168.02 124h-50.04a1 1 0 1 1 0-2h50.04a1 1 0 1 1 0 2m0 20h-50.04a1 1 0 1 1 0-2h50.04a1 1 0 1 1 0 2m0 20h-50.04a1 1 0 1 1 0-2h50.04a1 1 0 1 1 0 2m0-49.814h-50.04a1 1 0 1 1 0-2h50.04a1 1 0 1 1 0 2m0 19.814h-50.04a1 1 0 1 1 0-2h50.04a1 1 0 1 1 0 2m0 20h-50.04a1 1 0 1 1 0-2h50.04a1 1 0 1 1 0 2M183 61.611c-.012 0-.022-.006-.034-.005-3.09.105-4.552 3.196-5.842 5.923-1.346 2.85-2.387 4.703-4.093 4.647-1.889-.068-2.969-2.202-4.113-4.46-1.314-2.594-2.814-5.536-5.963-5.426-3.046.104-4.513 2.794-5.807 5.167-1.377 2.528-2.314 4.065-4.121 3.994-1.927-.07-2.951-1.805-4.136-3.813-1.321-2.236-2.848-4.75-5.936-4.664-2.994.103-4.465 2.385-5.763 4.4-1.373 2.13-2.335 3.428-4.165 3.351-1.973-.07-2.992-1.51-4.171-3.177-1.324-1.873-2.816-3.993-5.895-3.89-2.928.1-4.399 1.97-5.696 3.618-1.232 1.564-2.194 2.802-4.229 2.724a1 1 0 0 0-.072 2c3.017.101 4.545-1.8 5.872-3.487 1.177-1.496 2.193-2.787 4.193-2.855 1.926-.082 2.829 1.115 4.195 3.045 1.297 1.834 2.769 3.914 5.731 4.021 3.103.104 4.596-2.215 5.918-4.267 1.182-1.834 2.202-3.417 4.15-3.484 1.793-.067 2.769 1.35 4.145 3.681 1.297 2.197 2.766 4.686 5.787 4.796 3.125.108 4.634-2.62 5.949-5.035 1.139-2.088 2.214-4.06 4.119-4.126 1.793-.042 2.728 1.595 4.111 4.33 1.292 2.553 2.757 5.445 5.825 5.556l.169.003c3.064 0 4.518-3.075 5.805-5.794 1.139-2.41 2.217-4.68 4.067-4.773v-2z" fill="#000"/><path fill="#3ECC5F" d="M83 183h40v-40H83z"/><path d="M143 158c-.219 0-.428.037-.639.064-.038-.15-.074-.301-.116-.451A5 5 0 0 0 140.32 148a4.96 4.96 0 0 0-3.016 1.036 26.531 26.531 0 0 0-.335-.336 4.955 4.955 0 0 0 1.011-2.987 5 5 0 0 0-9.599-1.959c-.148-.042-.297-.077-.445-.115.027-.211.064-.42.064-.639a5 5 0 0 0-5-5 5 5 0 0 0-5 5c0 .219.037.428.064.639-.148.038-.297.073-.445.115a4.998 4.998 0 0 0-9.599 1.959c0 1.125.384 2.151 1.011 2.987-3.717 3.632-6.031 8.693-6.031 14.3 0 11.046 8.954 20 20 20 9.339 0 17.16-6.41 19.361-15.064.211.027.42.064.639.064a5 5 0 0 0 5-5 5 5 0 0 0-5-5" fill="#44D860"/><path fill="#3ECC5F" d="M83 123h40v-20H83z"/><path d="M133 115.5a2.5 2.5 0 1 0 0-5c-.109 0-.214.019-.319.032-.02-.075-.037-.15-.058-.225a2.501 2.501 0 0 0-.963-4.807c-.569 0-1.088.197-1.508.518a6.653 6.653 0 0 0-.168-.168c.314-.417.506-.931.506-1.494a2.5 2.5 0 0 0-4.8-.979A9.987 9.987 0 0 0 123 103c-5.522 0-10 4.478-10 10s4.478 10 10 10c.934 0 1.833-.138 2.69-.377a2.5 2.5 0 0 0 4.8-.979c0-.563-.192-1.077-.506-1.494.057-.055.113-.111.168-.168.42.321.939.518 1.508.518a2.5 2.5 0 0 0 .963-4.807c.021-.074.038-.15.058-.225.105.013.21.032.319.032" fill="#44D860"/><path d="M143 41.75c-.16 0-.33-.02-.49-.05a2.52 2.52 0 0 1-.47-.14c-.15-.06-.29-.14-.431-.23-.13-.09-.259-.2-.38-.31-.109-.12-.219-.24-.309-.38s-.17-.28-.231-.43a2.619 2.619 0 0 1-.189-.96c0-.16.02-.33.05-.49.03-.16.08-.31.139-.47.061-.15.141-.29.231-.43.09-.13.2-.26.309-.38.121-.11.25-.22.38-.31.141-.09.281-.17.431-.23.149-.06.31-.11.47-.14.32-.07.65-.07.98 0 .159.03.32.08.47.14.149.06.29.14.43.23.13.09.259.2.38.31.11.12.22.25.31.38.09.14.17.28.23.43.06.16.11.31.14.47.029.16.05.33.05.49 0 .66-.271 1.31-.73 1.77-.121.11-.25.22-.38.31-.14.09-.281.17-.43.23a2.565 2.565 0 0 1-.96.19m20-1.25c-.66 0-1.3-.27-1.771-.73a3.802 3.802 0 0 1-.309-.38c-.09-.14-.17-.28-.231-.43a2.619 2.619 0 0 1-.189-.96c0-.66.27-1.3.729-1.77.121-.11.25-.22.38-.31.141-.09.281-.17.431-.23.149-.06.31-.11.47-.14.32-.07.66-.07.98 0 .159.03.32.08.47.14.149.06.29.14.43.23.13.09.259.2.38.31.459.47.73 1.11.73 1.77 0 .16-.021.33-.05.49-.03.16-.08.32-.14.47-.07.15-.14.29-.23.43-.09.13-.2.26-.31.38-.121.11-.25.22-.38.31-.14.09-.281.17-.43.23a2.565 2.565 0 0 1-.96.19" fill="#000"/></g></svg> -->

<svg xmlns="http://www.w3.org/2000/svg" version="1.1" viewBox="0.00 0.00 500 200">
<path fill="#18c687" d="
  M 126.47 39.50
  A 21.55 21.55 0.0 0 1 104.92 61.05
  A 21.55 21.55 0.0 0 1 83.37 39.50
  A 21.55 21.55 0.0 0 1 104.92 17.95
  A 21.55 21.55 0.0 0 1 126.47 39.50
  Z
  M 115.43 39.47
  A 10.52 10.52 0.0 0 0 104.91 28.95
  A 10.52 10.52 0.0 0 0 94.39 39.47
  A 10.52 10.52 0.0 0 0 104.91 49.99
  A 10.52 10.52 0.0 0 0 115.43 39.47
  Z"
/>
<path fill="#081549" d="
  M 210.65 45.45
  Q 210.89 45.53 211.06 45.31
  C 216.23 38.75 225.65 37.26 233.02 39.77
  C 242.10 42.86 245.89 51.16 245.82 60.33
  Q 245.72 74.66 245.82 89.48
  A 0.62 0.62 0.0 0 1 245.20 90.11
  L 233.50 90.13
  Q 232.81 90.13 232.82 89.44
  Q 232.91 73.94 232.81 59.87
  C 232.78 55.90 230.12 51.76 226.29 50.45
  C 217.70 47.52 210.38 52.48 210.35 61.69
  Q 210.32 74.05 210.35 89.53
  A 0.57 0.57 0.0 0 1 209.78 90.11
  L 197.77 90.07
  A 0.30 0.30 0.0 0 1 197.47 89.77
  L 197.49 24.13
  Q 197.49 23.26 198.37 23.26
  L 209.71 23.27
  A 0.69 0.69 0.0 0 1 210.40 23.96
  L 210.35 45.02
  Q 210.35 45.35 210.65 45.45
  Z"
/>
<path fill="#081549" d="
  M 28.82 64.65
  C 30.84 73.18 37.98 79.08 46.87 79.12
  Q 47.53 79.13 47.53 79.78
  L 47.55 90.50
  Q 47.55 91.10 46.95 91.07
  Q 31.26 90.39 22.24 79.74
  Q 13.47 69.40 14.52 54.80
  Q 15.55 40.39 26.37 31.33
  C 35.48 23.71 48.90 22.28 60.16 26.24
  Q 69.80 29.63 75.20 38.02
  A 0.55 0.54 59.2 0 1 75.01 38.79
  L 64.21 44.99
  Q 63.58 45.36 63.24 44.71
  C 60.31 39.18 55.18 36.28 48.67 36.09
  Q 44.09 35.96 40.98 37.00
  C 33.55 39.49 28.92 46.19 28.22 53.93
  Q 27.68 59.83 28.82 64.65
  Z"
/>
<path fill="#081549" d="
  M 145.86 48.84
  C 142.66 58.08 144.71 71.28 153.98 76.52
  C 162.86 81.55 174.40 79.74 179.61 70.18
  Q 179.85 69.74 180.28 70.00
  L 190.87 76.41
  Q 191.62 76.86 191.14 77.59
  C 185.22 86.66 174.52 91.16 163.87 91.03
  C 149.42 90.84 137.52 82.78 132.69 68.96
  Q 130.46 62.58 131.21 53.66
  C 132.53 37.87 144.43 26.06 160.01 24.27
  C 171.94 22.89 184.05 27.24 191.04 37.33
  A 0.99 0.99 0.0 0 1 190.73 38.74
  L 180.29 45.01
  Q 179.79 45.31 179.52 44.80
  Q 174.56 35.46 162.64 36.04
  C 154.67 36.43 148.48 41.27 145.86 48.84
  Z"
/>
<path fill="#081549" d="
  M 293.29 45.79
  L 293.28 40.23
  A 0.99 0.98 0.0 0 1 294.27 39.25
  L 305.74 39.24
  A 0.50 0.50 0.0 0 1 306.24 39.74
  L 306.25 89.78
  Q 306.25 90.05 305.97 90.05
  L 293.79 90.06
  A 0.52 0.52 0.0 0 1 293.27 89.53
  L 293.33 83.70
  Q 293.35 82.43 292.57 83.43
  Q 288.85 88.25 283.41 89.87
  C 271.57 93.40 260.30 87.72 255.74 76.36
  C 251.61 66.06 253.03 52.94 260.76 45.07
  C 269.40 36.29 284.63 35.99 292.63 46.02
  Q 293.29 46.84 293.29 45.79
  Z
  M 280.3492 79.6562
  A 14.95 13.49 88.7 0 0 293.4965 64.4039
  A 14.95 13.49 88.7 0 0 279.6708 49.7638
  A 14.95 13.49 88.7 0 0 266.5235 65.0161
  A 14.95 13.49 88.7 0 0 280.3492 79.6562
  Z"
/>
<path fill="#081549" d="
  M 330.10 83.44
  L 330.14 108.38
  Q 330.14 108.97 329.55 108.97
  L 317.73 108.98
  A 0.50 0.50 0.0 0 1 317.23 108.48
  L 317.23 39.77
  A 0.50 0.50 0.0 0 1 317.73 39.27
  L 329.34 39.27
  A 0.81 0.81 0.0 0 1 330.15 40.09
  L 330.08 45.77
  Q 330.07 46.98 330.83 46.04
  Q 336.54 38.98 345.36 38.60
  Q 354.75 38.18 361.17 43.68
  C 371.68 52.68 372.59 70.45 365.00 81.42
  C 359.43 89.47 349.79 92.61 340.49 90.04
  C 336.47 88.93 333.28 86.51 330.69 83.23
  Q 330.10 82.49 330.10 83.44
  Z
  M 343.2150 79.6782
  A 14.96 13.44 90.9 0 0 356.8883 64.9311
  A 14.96 13.44 90.9 0 0 343.6850 49.7618
  A 14.96 13.44 90.9 0 0 330.0117 64.5089
  A 14.96 13.44 90.9 0 0 343.2150 79.6782
  Z"
/>
<path fill="#081549" d="
  M 415.20 83.07
  C 414.34 84.05 413.57 85.25 412.56 86.09
  Q 405.45 91.98 396.07 90.73
  C 384.21 89.15 376.98 79.28 376.00 67.78
  C 375.11 57.41 378.48 47.15 387.34 41.71
  C 396.00 36.41 408.27 37.48 414.97 46.04
  Q 415.79 47.08 415.78 45.76
  L 415.74 39.90
  Q 415.74 39.29 416.35 39.29
  L 428.00 39.24
  Q 428.75 39.24 428.75 39.99
  L 428.75 89.73
  A 0.35 0.35 0.0 0 1 428.40 90.08
  L 416.27 90.06
  A 0.54 0.53 -90.0 0 1 415.74 89.52
  L 415.80 83.30
  Q 415.81 82.39 415.20 83.07
  Z
  M 402.8338 79.6634
  A 14.96 13.51 88.3 0 0 415.8941 64.3092
  A 14.96 13.51 88.3 0 0 401.9462 49.7566
  A 14.96 13.51 88.3 0 0 388.8859 65.1108
  A 14.96 13.51 88.3 0 0 402.8338 79.6634
  Z"
/>
<path fill="#081549" d="
  M 476.23 83.23
  Q 476.23 82.18 475.62 83.03
  Q 470.74 89.87 461.61 90.85
  C 453.91 91.68 446.38 88.32 441.62 81.96
  Q 435.63 73.95 436.50 61.70
  C 437.41 48.83 446.05 38.71 459.40 38.55
  C 465.97 38.47 471.56 40.97 475.53 46.20
  Q 476.23 47.12 476.23 45.96
  L 476.21 39.91
  A 0.64 0.63 -90.0 0 1 476.84 39.27
  L 488.73 39.27
  A 0.46 0.45 -90.0 0 1 489.18 39.73
  L 489.18 89.44
  Q 489.18 90.06 488.56 90.06
  L 477.01 90.06
  Q 476.21 90.06 476.21 89.26
  L 476.23 83.23
  Z
  M 463.1592 79.6562
  A 14.95 13.50 88.7 0 0 476.3165 64.4037
  A 14.95 13.50 88.7 0 0 462.4808 49.7638
  A 14.95 13.50 88.7 0 0 449.3235 65.0163
  A 14.95 13.50 88.7 0 0 463.1592 79.6562
  Z"
/>
<path fill="#18c687" d="
  M 74.43 82.34
  C 73.98 83.38 73.72 84.53 73.09 85.49
  C 67.53 93.88 58.15 101.66 48.12 102.56
  Q 47.50 102.62 47.50 101.99
  L 47.49 91.74
  A 0.85 0.84 83.6 0 1 48.14 90.91
  Q 62.56 87.45 68.30 73.12
  Q 68.89 71.65 68.93 69.94
  A 0.65 0.65 0.0 0 0 68.28 69.27
  L 52.62 69.27
  Q 51.98 69.27 51.98 68.62
  L 51.97 59.00
  Q 51.97 58.47 52.50 58.47
  L 85.57 58.46
  Q 86.18 58.46 86.18 59.07
  L 86.16 93.79
  Q 86.15 94.49 85.46 94.49
  L 75.50 94.48
  A 0.48 0.47 90.0 0 1 75.03 94.00
  L 75.00 82.45
  Q 75.00 81.04 74.43 82.34
  Z"
/>
</svg>